<svg width="512" height="512" viewBox="0 0 512 512" version="1.1" xmlns="http://www.w3.org/2000/svg" xmlns:xlink="http://www.w3.org/1999/xlink">
<title>logo</title>
<desc>Created using Figma</desc>
<g id="Canvas" transform="translate(-17 83)">
<g id="logo">
<g id="E">
<use xlink:href="#path0_stroke" transform="translate(239 173)" fill="url(#paint0_linear)"/>
</g>
<g id="T">
<use xlink:href="#path1_stroke" transform="translate(161.45 93)" fill="url(#paint1_linear)"/>
</g>
<g id="Round">
<use xlink:href="#path2_stroke" transform="translate(82 75)" fill="url(#paint2_linear)"/>
</g>
</g>
</g>
<defs>
<linearGradient id="paint0_linear" x1="0" y1="0" x2="1" y2="0" gradientUnits="userSpaceOnUse" gradientTransform="matrix(-44.0187 -51.5874 1444.45 -1.5721 56 12.8979)">
<stop offset="0" stop-color="#BF6F8F"/>
<stop offset="1" stop-color="#E0909A"/>
</linearGradient>
<linearGradient id="paint1_linear" x1="0" y1="0" x2="1" y2="0" gradientUnits="userSpaceOnUse" gradientTransform="matrix(-49.1304 -68.9075 0.384958 -8794.33 29.1458 78.8977)">
<stop offset="0" stop-color="#DF8FA0"/>
<stop offset="1" stop-color="#EC9B6B"/>
</linearGradient>
<linearGradient id="paint2_linear" x1="0" y1="0" x2="1" y2="0" gradientUnits="userSpaceOnUse" gradientTransform="matrix(-401.009 -296.856 577.051 -206.293 401.009 249.505)">
<stop offset="0" stop-color="#9F4FA8"/>
<stop offset="1" stop-color="#FEAC5E"/>
</linearGradient>
<path id="path0_stroke" d="M 0 -24C -13.8071 -24 -25 -12.8071 -25 1C -25 14.8071 -13.8071 26 0 26L 0 -24ZM 55.3241 26C 69.1312 26 80.3241 14.8071 80.3241 1C 80.3241 -12.8071 69.1312 -24 55.3241 -24L 55.3241 26ZM 0 26L 55.3241 26L 55.3241 -24L 0 -24L 0 26Z"/>
<path id="path1_stroke" d="M 25.55 0C 25.55 -13.8071 14.3571 -25 0.55 -25C -13.2571 -25 -24.45 -13.8071 -24.45 0L 25.55 0ZM -24.45 179C -24.45 192.807 -13.2571 204 0.55 204C 14.3571 204 25.55 192.807 25.55 179L -24.45 179ZM -24.45 0L -24.45 179L 25.55 179L 25.55 0L -24.45 0ZM 25.55 179L 25.55 0L -24.45 0L -24.45 179L 25.55 179Z"/>
<path id="path2_stroke" d="M 156.762 171C 142.955 171 131.762 182.193 131.762 196C 131.762 209.807 142.955 221 156.762 221L 156.762 171ZM 301.866 196L 301.866 221C 301.939 221 302.012 221 302.085 220.999L 301.866 196ZM 361.607 169.094L 340.362 155.917L 361.607 169.094ZM 373.499 53.3867L 349.046 58.5854L 373.499 53.3867ZM 343.241 14.5859L 359.529 -4.38035L 359.529 -4.38035L 343.241 14.5859ZM 298.577 0L 304.233 -24.352C 302.378 -24.7826 300.481 -25 298.577 -25L 298.577 0ZM 0 -25C -13.8071 -25 -25 -13.8071 -25 0C -25 13.8071 -13.8071 25 0 25L 0 -25ZM 156.762 221C 205.13 221 241.406 221 265.59 221C 277.682 221 286.751 221 292.797 221C 295.82 221 298.087 221 299.598 221C 300.354 221 300.921 221 301.299 221C 301.488 221 301.629 221 301.724 221C 301.771 221 301.807 221 301.83 221C 301.842 221 301.851 221 301.857 221C 301.86 221 301.862 221 301.863 221C 301.864 221 301.865 221 301.865 221C 301.865 221 301.866 221 301.866 196C 301.866 171 301.865 171 301.865 171C 301.865 171 301.864 171 301.863 171C 301.862 171 301.86 171 301.857 171C 301.851 171 301.842 171 301.83 171C 301.807 171 301.771 171 301.724 171C 301.629 171 301.488 171 301.299 171C 300.921 171 300.354 171 299.598 171C 298.087 171 295.82 171 292.797 171C 286.751 171 277.682 171 265.59 171C 241.406 171 205.13 171 156.762 171L 156.762 221ZM 302.085 220.999C 324.535 220.802 361.523 216.661 382.853 182.271L 340.362 155.917C 333.563 166.878 320.961 170.831 301.646 171.001L 302.085 220.999ZM 382.853 182.271C 391.616 168.14 400.508 152.548 404.409 131.386C 407.85 110.216 405.704 84.65 397.953 48.1881L 349.046 58.5854C 356.397 93.166 356.994 111.446 355.057 123.365C 353.58 135.291 348.974 142.031 340.362 155.917L 382.853 182.271ZM 397.953 48.1881C 394.391 31.4354 380.294 13.4519 359.529 -4.38035L 326.954 33.5522C 335.862 41.1529 341.098 46.749 345.096 52.1805C 348.608 56.698 349.147 59.9044 349.046 58.5854L 397.953 48.1881ZM 359.529 -4.38035C 353.126 -9.87834 344.156 -13.2222 337.022 -15.5696C 329.061 -18.1788 317.923 -21.1691 304.233 -24.352L 292.922 24.352C 305.797 27.3383 314.773 29.7361 321.393 31.9251C 328.841 34.3758 328.92 35.2403 326.954 33.5522L 359.529 -4.38035ZM 298.577 0C 298.577 -25 298.577 -25 298.576 -25C 298.575 -25 298.574 -25 298.573 -25C 298.57 -25 298.565 -25 298.559 -25C 298.547 -25 298.529 -25 298.504 -25C 298.456 -25 298.383 -25 298.286 -25C 298.091 -25 297.8 -25 297.411 -25C 296.633 -25 295.467 -25 293.912 -25C 290.802 -25 286.137 -25 279.916 -25C 267.476 -25 248.814 -25 223.933 -25C 174.17 -25 99.5258 -25 0 -25L 0 25C 99.5258 25 174.17 25 223.933 25C 248.814 25 267.476 25 279.916 25C 286.137 25 290.802 25 293.912 25C 295.467 25 296.633 25 297.411 25C 297.8 25 298.091 25 298.286 25C 298.383 25 298.456 25 298.504 25C 298.529 25 298.547 25 298.559 25C 298.565 25 298.57 25 298.573 25C 298.574 25 298.575 25 298.576 25C 298.577 25 298.577 25 298.577 0Z"/>
</defs>
</svg>
